<svg xmlns="http://www.w3.org/2000/svg" version="1.1" xmlns:xlink="http://www.w3.org/1999/xlink" xmlns:svgjs="http://svgjs.dev/svgjs" width="1000" height="308" viewBox="0 0 1000 308"><g transform="matrix(1,0,0,1,-0.6056348047761162,0.1345107830543668)"><svg viewBox="0 0 396 122" data-background-color="#ffffff" preserveAspectRatio="xMidYMid meet" height="308" width="1000" xmlns="http://www.w3.org/2000/svg" xmlns:xlink="http://www.w3.org/1999/xlink"><g id="tight-bounds" transform="matrix(1,0,0,1,0.24008861730862918,-0.053258241159625186)"><svg viewBox="0 0 395.52 122.10647958779231" height="122.10647958779231" width="395.52"><g><svg viewBox="0 0 395.52 122.10647958779231" height="122.10647958779231" width="395.52"><g><svg viewBox="0 0 395.52 122.10647958779231" height="122.10647958779231" width="395.52"><g><svg viewBox="0 0 395.52 122.10647958779231" height="122.10647958779231" width="395.52"><g><svg viewBox="0 0 395.52 122.10647958779231" height="122.10647958779231" width="395.52"><path d="M394.594 26.19C392.735 13.515 387.435 9.991 387.435 9.991 371.165-3.063 350.86-0.25 332.619 1.626 300.414 1.702 268.339 4.491 236.208 5.986 168.767 6.214 100.749 2.463 33.643 11.715 27.339 14.554-6.54 12.273 1.121 27.812 3.129 34.276 10.456 41.45 10.232 47.381 11.236 48.421 12.631 46.038 13.226 47.534 15.309 51.564 18.711 49.663 21.501 52.046 17.614 58.408 20.403 63.706 23.062 69.258 18.377 70.703 12.371 70.018 9.675 74.809 9.396 78.282 7.89 77.623 6.235 77.471 5.026 77.37 2.59 77.75 2.999 78.84 4.394 82.566-1.594 84.721 2.162 88.371-0.422 92.326 3.948 95.748 3.353 100.032 3.278 100.894 3.687 101.629 4.338 101.832 7.22 102.922 3.018 105.051 3.464 107.358 33.029 123.125 65.104 112.225 95.394 119.475 103.259 114.405 97.346 121.274 100.489 120.21 102.943 118.968 104.728 124.114 107.499 121.198 107.927 120.362 107.276 118.385 108.8 118.765 109.6 118.968 110.307 118.917 110.418 117.751 110.586 116.002 109.117 117.092 108.726 116.179 112.947 111.566 111.906 122.542 115.866 122.086 115.68 120.742 114.528 118.816 116.889 119.069 119.232 117.143 119.306 115.546 121.389 119.88 121.463 120.818 121.835 121.477 122.43 121.934 128.938 117.219 135.409 123.607 142.233 121.477 146.417 119.145 150.433 122.745 154.672 121.857 156.16 121.148 157.666 119.88 159.098 122.01 176.632 122.466 195.319 120.565 211.943 122.086 256.364 119.246 303.836 123.252 350.674 119.5 361.719 118.055 373.192 116.002 383.958 114.354 383.958 114.354 392.679 109.842 392.679 89.563S394.538 71.818 394.817 55.671C395.096 39.523 396.398 38.864 394.538 26.19Z" opacity="1" fill="#2563eb" data-fill-palette-color="tertiary"></path><g transform="matrix(1,0,0,1,55.76832,26.230666666666668)"><svg width="283.98335999999995" viewBox="-0.55 -40.4 168.18 41.25" height="69.64514625445896" data-palette-color="#ffffff"><path d="M18.8-34.65L26.8-34.65 18.35 0 8.25 0-0.55-34.65 7.65-34.65 13.45-6.3 18.8-34.65ZM28.85-26.55L36.55-26.55 36.55 0 28.85 0 28.85-26.55ZM32.65-40.4Q34.6-40.4 35.87-39.15 37.15-37.9 37.15-36.05L37.15-36.05Q37.15-34.15 35.87-32.9 34.6-31.65 32.65-31.65L32.65-31.65Q30.7-31.65 29.45-32.9 28.2-34.15 28.2-36.05L28.2-36.05Q28.2-37.9 29.45-39.15 30.7-40.4 32.65-40.4L32.65-40.4ZM50.45-27.4Q53.09-27.4 55.39-26.55 57.7-25.7 59.45-24.15L59.45-24.15 56.64-19.95Q53.65-21.9 51-21.9L51-21.9Q49.59-21.9 48.84-21.33 48.09-20.75 48.09-19.75L48.09-19.75Q48.09-19 48.47-18.48 48.84-17.95 49.9-17.43 50.95-16.9 53.05-16.15L53.05-16.15Q56.75-14.9 58.52-13 60.3-11.1 60.3-7.85L60.3-7.85Q60.3-3.85 57.25-1.5 54.2 0.85 49.45 0.85L49.45 0.85Q46.4 0.85 43.77-0.2 41.15-1.25 39.3-3.05L39.3-3.05 42.95-7.15Q46.05-4.65 49.15-4.65L49.15-4.65Q50.7-4.65 51.57-5.33 52.45-6 52.45-7.2L52.45-7.2Q52.45-8.15 52.07-8.75 51.7-9.35 50.67-9.9 49.65-10.45 47.5-11.2L47.5-11.2Q43.84-12.45 42.17-14.38 40.49-16.3 40.49-19.25L40.49-19.25Q40.49-21.55 41.7-23.4 42.9-25.25 45.15-26.33 47.4-27.4 50.45-27.4L50.45-27.4ZM76.64-6L79.19-1.25Q77.84-0.25 76.07 0.3 74.29 0.85 72.49 0.85L72.49 0.85Q68.44 0.85 66.39-1.45 64.34-3.75 64.34-7.9L64.34-7.9 64.34-21.2 61.14-21.2 61.14-26.55 64.34-26.55 64.34-32.3 72.04-33.2 72.04-26.55 77.49-26.55 76.69-21.2 72.04-21.2 72.04-8Q72.04-5.25 74.14-5.25L74.14-5.25Q75.29-5.25 76.64-6L76.64-6ZM100.84-7.35Q100.84-6 101.19-5.35 101.54-4.7 102.39-4.35L102.39-4.35 100.79 0.7Q98.49 0.5 97.04-0.35 95.59-1.2 94.79-3L94.79-3Q92.34 0.85 87.64 0.85L87.64 0.85Q84.04 0.85 81.91-1.43 79.79-3.7 79.79-7.45L79.79-7.45Q79.79-11.8 82.72-14.1 85.64-16.4 91.19-16.4L91.19-16.4 93.29-16.4 93.29-17.65Q93.29-20 92.44-20.93 91.59-21.85 89.44-21.85L89.44-21.85Q86.99-21.85 83.19-20.5L83.19-20.5 81.44-25.45Q83.64-26.4 86.14-26.9 88.64-27.4 90.79-27.4L90.79-27.4Q95.94-27.4 98.39-25.1 100.84-22.8 100.84-18.1L100.84-18.1 100.84-7.35ZM89.94-4.65Q90.99-4.65 91.86-5.3 92.74-5.95 93.29-7.15L93.29-7.15 93.29-12.1 91.89-12.1Q89.54-12.1 88.44-11.13 87.34-10.15 87.34-8.1L87.34-8.1Q87.34-6.4 88.02-5.53 88.69-4.65 89.94-4.65L89.94-4.65ZM112.89 0.85Q109.59 0.85 107.74-1.05 105.89-2.95 105.89-6.35L105.89-6.35 105.89-37.1 113.59-37.9 113.59-6.7Q113.59-5.25 114.79-5.25L114.79-5.25Q115.29-5.25 115.89-5.45L115.89-5.45 117.34-0.1Q115.34 0.85 112.89 0.85L112.89 0.85ZM139.34-7.35Q139.34-6 139.69-5.35 140.03-4.7 140.88-4.35L140.88-4.35 139.28 0.7Q136.99 0.5 135.53-0.35 134.09-1.2 133.28-3L133.28-3Q130.84 0.85 126.14 0.85L126.14 0.85Q122.53 0.85 120.41-1.43 118.28-3.7 118.28-7.45L118.28-7.45Q118.28-11.8 121.21-14.1 124.14-16.4 129.69-16.4L129.69-16.4 131.78-16.4 131.78-17.65Q131.78-20 130.94-20.93 130.09-21.85 127.94-21.85L127.94-21.85Q125.48-21.85 121.69-20.5L121.69-20.5 119.94-25.45Q122.14-26.4 124.64-26.9 127.14-27.4 129.28-27.4L129.28-27.4Q134.44-27.4 136.88-25.1 139.34-22.8 139.34-18.1L139.34-18.1 139.34-7.35ZM128.44-4.65Q129.49-4.65 130.36-5.3 131.24-5.95 131.78-7.15L131.78-7.15 131.78-12.1 130.38-12.1Q128.03-12.1 126.94-11.13 125.84-10.15 125.84-8.1L125.84-8.1Q125.84-6.4 126.51-5.53 127.19-4.65 128.44-4.65L128.44-4.65ZM158.83-27.4Q163.08-27.4 165.36-23.78 167.63-20.15 167.63-13.25L167.63-13.25Q167.63-9.05 166.48-5.85 165.33-2.65 163.18-0.9 161.03 0.85 158.08 0.85L158.08 0.85Q156.18 0.85 154.58-0.03 152.98-0.9 151.83-2.5L151.83-2.5 151.48 0 144.63 0 144.63-37.1 152.33-37.9 152.33-23.95Q153.43-25.55 155.13-26.48 156.83-27.4 158.83-27.4L158.83-27.4ZM155.83-4.75Q157.68-4.75 158.68-6.68 159.68-8.6 159.68-13.25L159.68-13.25Q159.68-18.2 158.78-19.98 157.88-21.75 156.18-21.75L156.18-21.75Q155.08-21.75 154.11-20.95 153.13-20.15 152.33-18.75L152.33-18.75 152.33-7.25Q153.73-4.75 155.83-4.75L155.83-4.75Z" opacity="1" transform="matrix(1,0,0,1,0,0)" fill="#ffffff" class="undefined-text-0" data-fill-palette-color="quaternary" id="text-0"></path></svg></g></svg></g></svg></g></svg></g><g></g></svg></g><defs></defs></svg><rect width="395.52" height="122.10647958779231" fill="none" stroke="none" visibility="hidden"></rect></g></svg></g></svg>